<svg width="40" height="40" viewBox="0 0 40 40" fill="none" xmlns="http://www.w3.org/2000/svg">
<g clip-path="url(#clip0_1_29)">
<path d="M39.4843 37.1192L29.5765 27.2032C31.9207 24.3281 33.3338 20.6688 33.3338 16.6746C33.3338 7.48553 25.86 0.00360107 16.6628 0.00360107C7.4656 0.00360107 0 7.48553 0 16.6746C0 25.8636 7.47377 33.3374 16.671 33.3374C20.657 33.3374 24.3244 31.9243 27.1996 29.5801L37.1074 39.4879C37.7854 40.1659 38.8146 40.1659 39.4925 39.4879C40.1705 38.81 40.1705 37.7972 39.4843 37.1192ZM3.3244 16.6746C3.3244 9.31518 9.30341 3.33617 16.6628 3.33617C24.0222 3.33617 30.0094 9.32335 30.0094 16.6828C30.0094 24.0422 24.0222 30.0294 16.6628 30.0294C9.30341 30.0294 3.3244 24.034 3.3244 16.6746Z" fill="#E9D2C0"/>
</g>
<defs>
<clipPath id="clip0_1_29">
<rect width="40" height="40" fill="white"/>
</clipPath>
</defs>
</svg>
